<?xml version="1.0" encoding="iso-8859-1"?>
<!-- Generator: Adobe Illustrator 19.0.0, SVG Export Plug-In . SVG Version: 6.00 Build 0)  -->
<svg version="1.1" id="Capa_1" xmlns="http://www.w3.org/2000/svg" xmlns:xlink="http://www.w3.org/1999/xlink" x="0px" y="0px"
	 viewBox="0 0 512 512" style="enable-background:new 0 0 512 512;" xml:space="preserve">
<g>
	<g>
		<path d="M452.565,248.925c-1.869-1.86-4.439-2.93-7.069-2.93c-2.641,0-5.21,1.07-7.08,2.93c-1.861,1.86-2.93,4.44-2.93,7.07
			s1.07,5.21,2.93,7.07c1.87,1.86,4.439,2.93,7.08,2.93c2.63,0,5.2-1.071,7.069-2.93c1.861-1.86,2.931-4.44,2.931-7.07
			S454.425,250.785,452.565,248.925z"/>
	</g>
</g>
<g>
	<g>
		<path d="M510.086,250.118l-74.332-102.331c-1.72-2.367-4.389-3.862-7.306-4.092c-2.911-0.226-5.787,0.829-7.856,2.898
			l-17.596,17.596l-63.928-63.928c-1.912-1.912-4.489-2.971-7.222-2.928c-2.703,0.041-5.275,1.175-7.13,3.143l-24.26,25.76
			L206.945,3.925c-1.98-2.591-5.09-4.051-8.36-3.917c-3.259,0.136-6.247,1.852-8.006,4.599l-76.963,120.196l-24.209-24.21
			c-2.284-2.284-5.533-3.326-8.722-2.792c-3.188,0.534-5.921,2.575-7.338,5.48L1.017,251.612c-1.62,3.323-1.275,7.268,0.897,10.259
			l74.332,102.342c1.719,2.367,4.389,3.863,7.306,4.093c2.917,0.231,5.787-0.829,7.856-2.898l17.596-17.596l63.928,63.928
			c1.877,1.877,4.421,2.929,7.071,2.929c0.05,0,0.1,0,0.15-0.001c2.703-0.041,5.275-1.174,7.13-3.143l24.259-25.76l93.514,122.311
			c1.896,2.48,4.837,3.926,7.943,3.926c0.139,0,0.278-0.003,0.417-0.009c3.259-0.136,6.247-1.852,8.006-4.599l76.962-120.196
			l24.21,24.21c2.285,2.285,5.527,3.328,8.723,2.792c3.188-0.534,5.921-2.575,7.337-5.48l72.332-148.341
			C512.603,257.054,512.259,253.109,510.086,250.118z M426.821,387.35l-23.086-23.086c-2.143-2.141-5.137-3.196-8.148-2.871
			c-3.011,0.326-5.711,1.999-7.345,4.549l-75.969,118.644l-91.996-120.324c-1.783-2.332-4.5-3.763-7.432-3.913
			c-0.171-0.009-0.343-0.013-0.514-0.013c-2.748,0-5.385,1.132-7.279,3.144l-25.268,26.831l-63.713-63.713
			c-3.906-3.905-10.236-3.905-14.143,0l-16.387,16.387l-55.917-76.992H393.33c5.522,0,10-4.477,10-10s-4.478-10-10-10H26.006
			l59.173-121.346l23.086,23.086c2.142,2.142,5.146,3.199,8.148,2.871c3.011-0.326,5.711-1.999,7.345-4.549l75.969-118.644
			l91.996,120.326c1.783,2.332,4.5,3.763,7.432,3.913c2.926,0.152,5.78-0.994,7.793-3.131l25.268-26.831l63.713,63.712
			c3.906,3.905,10.236,3.905,14.143,0l16.387-16.387l63.92,87.997L426.821,387.35z"/>
	</g>
</g>
<g>
</g>
<g>
</g>
<g>
</g>
<g>
</g>
<g>
</g>
<g>
</g>
<g>
</g>
<g>
</g>
<g>
</g>
<g>
</g>
<g>
</g>
<g>
</g>
<g>
</g>
<g>
</g>
<g>
</g>
</svg>
